<?xml version="1.0" encoding="UTF-8" standalone="no"?>
<!-- Created with Inkscape (http://www.inkscape.org/) -->

<svg
   xmlns:dc="http://purl.org/dc/elements/1.1/"
   xmlns:cc="http://creativecommons.org/ns#"
   xmlns:rdf="http://www.w3.org/1999/02/22-rdf-syntax-ns#"
   xmlns:svg="http://www.w3.org/2000/svg"
   xmlns="http://www.w3.org/2000/svg"
   xmlns:sodipodi="http://sodipodi.sourceforge.net/DTD/sodipodi-0.dtd"
   xmlns:inkscape="http://www.inkscape.org/namespaces/inkscape"
   version="1.1"
   id="svg2"
   xml:space="preserve"
   width="250"
   height="250"
   viewBox="0 0 250 250"
   sodipodi:docname="madpy-logo.svg"
   inkscape:export-filename="/Users/pierce/Projects/Madpy/madpy.com/logo/madpy-logo-centered.png"
   inkscape:export-xdpi="191.78082"
   inkscape:export-ydpi="191.78082"
   inkscape:version="0.92.2 5c3e80d, 2017-08-06"><metadata
     id="metadata8"><rdf:RDF><cc:Work
         rdf:about=""><dc:format>image/svg+xml</dc:format><dc:type
           rdf:resource="http://purl.org/dc/dcmitype/StillImage" /><dc:title></dc:title></cc:Work></rdf:RDF></metadata><defs
     id="defs6"><clipPath
       clipPathUnits="userSpaceOnUse"
       id="clipPath20"><path
         d="M 0,132 H 132 V 0 H 0 Z"
         id="path18"
         inkscape:connector-curvature="0" /></clipPath></defs><sodipodi:namedview
     pagecolor="#ffffff"
     bordercolor="#666666"
     borderopacity="1"
     objecttolerance="10"
     gridtolerance="10"
     guidetolerance="10"
     inkscape:pageopacity="0"
     inkscape:pageshadow="2"
     inkscape:window-width="1108"
     inkscape:window-height="703"
     id="namedview4"
     showgrid="false"
     inkscape:zoom="0.54"
     inkscape:cx="257.27554"
     inkscape:cy="308.35398"
     inkscape:window-x="0"
     inkscape:window-y="0"
     inkscape:window-maximized="0"
     inkscape:current-layer="g10" /><g
     id="g10"
     inkscape:groupmode="layer"
     inkscape:label="madpy-logo"
     transform="matrix(1.3333333,0,0,-1.3333333,0,250)"><path
       d="M 0.22222226,-1.5 H 189.41221 V 188.85038 H 0.22222226 Z"
       style="fill:#8aaad9;fill-opacity:1;fill-rule:nonzero;stroke:none;stroke-width:1.43764615"
       id="path12"
       inkscape:connector-curvature="0" /><g
       id="g14"
       transform="matrix(1.1903807,0,0,1.1903807,18.665628,16.666904)"><g
         id="g16"
         clip-path="url(#clipPath20)"><g
           id="g22"
           transform="translate(28.5977,77.0884)"><path
             d="M 0,0 C 0.021,-1.374 1.165,-2.503 2.532,-2.503 3.963,-2.5 5.112,-1.327 5.082,0.102 5.054,1.469 3.907,2.606 2.549,2.617 1.143,2.629 -0.021,1.434 0,0 m 86.303,37.359 c -2.22,0 -4.24,-0.064 -6.255,0.027 -1.041,0.046 -1.428,-0.35 -1.724,-1.295 C 74.855,25.077 71.343,14.076 67.847,3.069 67.468,1.875 67.118,0.67 66.746,-0.552 c 2.544,-0.314 2.542,-0.314 3.449,1.718 4.295,9.641 8.596,19.28 12.889,28.923 1.047,2.351 2.085,4.708 3.219,7.27 M -5.151,-14.236 c 5.103,-16.127 23.022,-29.472 43.782,-25.053 20.924,4.454 30.442,23.479 30.013,36.008 -3.54,0 -7.085,-0.057 -10.627,0.03 -1.222,0.032 -1.769,-0.313 -2.203,-1.504 -2.539,-6.982 -6.506,-13.031 -12.116,-17.947 -4.57,-4.001 -9.755,-6.896 -15.847,-7.55 -11.631,-1.248 -21.4,2.657 -29.266,11.287 -1.281,1.404 -2.369,2.987 -3.736,4.729 m 38.698,-28.441 h -6.686 v -1.194 c 0,-5.426 0,-10.851 -0.001,-16.28 0,-0.318 0.119,-0.743 -0.04,-0.936 -0.36,-0.443 -0.862,-1.074 -1.299,-1.068 -0.428,0.007 -1.047,0.633 -1.218,1.117 -0.215,0.604 -0.059,1.338 -0.059,2.016 -0.001,5.269 -0.015,10.536 0.015,15.804 0.006,0.782 -0.209,1.068 -1.019,1.222 -17.691,3.368 -30.981,17.762 -32.959,35.651 -0.108,0.982 -0.15,1.97 -0.23,3.064 -1.098,0 -2.088,0.015 -3.078,-0.005 -0.917,-0.018 -1.722,0.119 -1.779,1.264 -0.044,0.894 0.589,1.341 1.847,1.352 1.03,0.007 2.059,0.001 3.072,0.001 1.367,11.359 10.261,16.621 17.32,17.011 7.798,0.43 16.438,-4.281 19.105,-14.434 1.173,0.306 2.352,0.606 3.525,0.924 8.729,2.368 17.455,4.743 26.183,7.109 1.548,0.42 2.302,-0.191 2.142,-1.798 C 58.1,5.256 57.746,2.376 57.405,-0.66 c 1.947,0 4.006,-0.038 6.059,0.047 0.273,0.011 0.628,0.616 0.753,1.008 2.725,8.496 5.426,17.002 8.126,25.506 1.314,4.139 2.65,8.271 3.914,12.427 0.357,1.18 0.966,1.678 2.223,1.65 2.994,-0.067 5.988,-0.018 8.98,-0.023 2.169,-0.002 2.602,-0.66 1.73,-2.622 C 83.775,25.176 78.358,13.021 72.946,0.865 72.755,0.432 72.581,-0.008 72.302,-0.67 c 0.943,0 1.75,0 2.557,0 0.89,-0.002 1.509,-0.398 1.505,-1.325 -0.007,-0.922 -0.607,-1.309 -1.514,-1.291 -1.072,0.022 -2.141,0.005 -3.098,0.005 C 69.31,-24.913 57.563,-37.922 36.201,-42.625 v -1.035 c 0,-5.467 10e-4,-10.935 -0.002,-16.401 0,-0.398 0.103,-0.904 -0.096,-1.166 -0.322,-0.421 -0.868,-0.945 -1.298,-0.928 -0.423,0.019 -0.896,0.604 -1.201,1.041 -0.171,0.246 -0.057,0.696 -0.057,1.054 -10e-4,5.31 0,10.617 0,15.923 z"
             style="fill:#000000;fill-opacity:1;fill-rule:evenodd;stroke:none"
             id="path24"
             inkscape:connector-curvature="0" /></g></g></g></g></svg>